<svg width="512" height="512" viewBox="0 0 512 512" fill="none" xmlns="http://www.w3.org/2000/svg">
<path d="M497.528 422.632L358.4 144.376L296.96 83.3301L204.8 144.376L352.872 440.521C356.26 447.296 363.185 451.576 370.761 451.576H479.639C494.507 451.576 504.177 435.93 497.528 422.632Z" fill="#2EB9FF"/>
<path d="M497.528 422.632L358.4 144.376L296.96 83.3301L204.8 144.376L352.872 440.521C356.26 447.296 363.185 451.576 370.761 451.576H479.639C494.507 451.576 504.177 435.93 497.528 422.632Z" fill="url(#paint0_linear_2840_42007)"/>
<g filter="url(#filter0_d_2840_42007)">
<path d="M153.6 144.376L14.4722 422.631C7.82323 435.929 17.4931 451.576 32.3608 451.576H141.239C148.815 451.576 155.74 447.296 159.128 440.52L307.2 144.375C313.502 133.348 332.564 117.909 358.4 144.376C272.384 -8.43684 186.027 80.7037 153.6 144.376Z" fill="#2EB9FF"/>
</g>
<defs>
<filter id="filter0_d_2840_42007" x="2.33496" y="54" width="366.065" height="411.576" filterUnits="userSpaceOnUse" color-interpolation-filters="sRGB">
<feFlood flood-opacity="0" result="BackgroundImageFix"/>
<feColorMatrix in="SourceAlpha" type="matrix" values="0 0 0 0 0 0 0 0 0 0 0 0 0 0 0 0 0 0 127 0" result="hardAlpha"/>
<feOffset dy="4"/>
<feGaussianBlur stdDeviation="5"/>
<feComposite in2="hardAlpha" operator="out"/>
<feColorMatrix type="matrix" values="0 0 0 0 0 0 0 0 0 0 0 0 0 0 0 0 0 0 0.25 0"/>
<feBlend mode="normal" in2="BackgroundImageFix" result="effect1_dropShadow_2840_42007"/>
<feBlend mode="normal" in="SourceGraphic" in2="effect1_dropShadow_2840_42007" result="shape"/>
</filter>
<linearGradient id="paint0_linear_2840_42007" x1="205" y1="-19" x2="426.5" y2="419.5" gradientUnits="userSpaceOnUse">
<stop stop-color="white" stop-opacity="0"/>
<stop offset="0.662512" stop-color="#3A404D" stop-opacity="0.823557"/>
<stop offset="1" stop-color="#101727"/>
</linearGradient>
</defs>
</svg>
