<svg xmlns="http://www.w3.org/2000/svg" width="64.57" height="57.345" viewBox="0 0 64.57 57.345"><defs><style>.a{fill:#0b004f;}.b{fill:#fff;}</style></defs><g transform="translate(-3.2 -9.93)"><path class="a" d="M67.06,35.92,53.6,12.613A5.378,5.378,0,0,0,48.954,9.93H22.027a5.378,5.378,0,0,0-4.644,2.683L3.916,35.92a5.383,5.383,0,0,0,0,5.366L17.377,64.592a5.378,5.378,0,0,0,4.644,2.683H48.949a5.378,5.378,0,0,0,4.644-2.683L67.054,41.286a5.383,5.383,0,0,0,0-5.366Z"/><path class="b" d="M55.3,57.575l-.568-3.826h-.21a12.819,12.819,0,0,1-10.2,4.6c-6.941,0-10.835-5.031-10.835-10.272,0-8.714,7.72-13.1,20.464-13.035v-.568c0-2.274-.921-6.02-7.015-6.02a18.27,18.27,0,0,0-9.277,2.552l-1.705-5.685A24.857,24.857,0,0,1,48.423,22.28c11.051,0,14.211,7.009,14.211,14.518V49.287a55.318,55.318,0,0,0,.495,8.288Zm-1.137-16.86c-6.173-.136-12.04,1.211-12.04,6.452,0,3.411,2.194,4.957,4.957,4.957A7.06,7.06,0,0,0,53.9,47.377a6.253,6.253,0,0,0,.284-1.91Z" transform="translate(-13.072 -5.33)"/><rect class="b" width="29.73" height="2.439" transform="translate(20.896 57.793)"/></g></svg>